<?xml version="1.0" standalone="no"?>
<!DOCTYPE svg PUBLIC "-//W3C//DTD SVG 20010904//EN"
 "http://www.w3.org/TR/2001/REC-SVG-20010904/DTD/svg10.dtd">
<svg version="1.0" xmlns="http://www.w3.org/2000/svg"
 width="512.000000pt" height="512.000000pt" viewBox="0 0 512.000000 512.000000"
 preserveAspectRatio="xMidYMid meet">
<metadata>
Created by potrace 1.14, written by Peter Selinger 2001-2017
</metadata>
<g transform="translate(0.000000,512.000000) scale(0.100000,-0.100000)"
fill="#000000" stroke="none">
<path d="M920 4232 c-107 -56 -827 -477 -836 -490 -7 -10 -11 -191 -11 -579 0
-503 2 -567 16 -583 12 -15 486 -299 658 -394 15 -9 37 -22 48 -29 29 -18 85
-51 135 -79 25 -14 162 -94 305 -178 143 -84 325 -191 405 -238 80 -46 156
-92 170 -101 14 -8 45 -26 70 -39 25 -14 52 -31 61 -38 8 -8 19 -14 23 -14 4
0 32 -16 62 -35 30 -19 57 -35 60 -35 3 0 30 -16 60 -35 30 -19 56 -35 58 -35
2 0 89 -50 193 -111 103 -61 206 -122 228 -134 22 -13 114 -66 204 -119 90
-53 173 -96 185 -96 11 0 41 12 66 26 25 14 70 40 100 57 64 35 69 38 263 151
82 47 150 86 152 86 2 0 37 20 78 44 91 54 802 462 872 501 28 15 55 30 60 35
6 4 35 21 65 37 141 77 356 206 366 219 18 23 20 1143 2 1166 -13 18 -726 439
-786 464 -29 13 -36 12 -75 -7 -34 -18 -313 -177 -547 -313 -25 -14 -81 -46
-125 -71 -44 -26 -96 -55 -115 -67 -19 -11 -96 -55 -170 -97 l-136 -77 -49 29
c-130 77 -445 262 -485 285 -25 14 -88 51 -140 82 -122 72 -186 110 -232 135
-21 11 -47 28 -58 37 -11 10 -20 16 -20 13 0 -2 -51 25 -112 62 -239 140 -287
168 -398 233 -63 37 -224 131 -357 208 -133 78 -250 142 -260 142 -10 0 -34
-8 -53 -18z m305 -268 c127 -75 237 -140 245 -145 8 -5 182 -106 385 -225 204
-118 544 -317 757 -442 213 -124 384 -230 381 -235 -3 -6 -2 -7 4 -4 6 4 27
-3 49 -13 22 -12 47 -17 59 -14 11 3 268 148 572 320 l551 315 124 -74 c68
-40 168 -100 223 -132 55 -33 114 -67 130 -76 105 -58 145 -87 133 -96 -12
-10 -170 -101 -268 -155 -88 -48 -977 -556 -1368 -781 l-184 -106 -76 46 c-43
25 -126 74 -187 109 -60 36 -117 69 -125 74 -20 12 -774 451 -826 481 -46 27
-400 235 -424 249 -8 5 -186 109 -395 231 -209 122 -431 252 -493 288 -63 36
-133 77 -157 91 -24 14 -46 28 -50 32 -5 5 106 78 120 78 1 0 32 17 66 38 35
22 141 83 234 136 94 53 177 101 185 107 8 5 27 15 43 22 15 6 27 15 27 20 0
15 25 2 265 -139z m-897 -440 c29 -19 54 -34 56 -34 1 0 142 -82 312 -181 170
-100 323 -189 339 -199 17 -10 71 -41 120 -70 50 -29 118 -69 152 -89 515
-300 691 -406 686 -414 -3 -6 -1 -7 5 -3 6 3 124 -60 262 -141 138 -82 273
-160 298 -174 26 -15 124 -72 217 -127 l170 -100 1 -458 c0 -253 -2 -465 -4
-472 -3 -8 -9 -9 -16 -4 -9 8 -536 318 -636 375 -176 99 -586 343 -588 349 -2
4 -8 8 -14 8 -5 0 -73 38 -151 83 -78 46 -161 94 -184 107 -24 13 -43 27 -43
32 0 4 -5 8 -12 8 -10 0 -194 104 -423 241 -44 26 -99 58 -121 71 -23 12 -156
90 -295 172 l-254 148 2 242 c1 132 2 343 2 469 l1 228 33 -17 c17 -9 56 -32
85 -50z m4588 -866 c-3 -205 -5 -416 -6 -468 l0 -95 -33 -19 c-17 -10 -56 -31
-86 -47 -30 -16 -59 -33 -65 -38 -6 -4 -36 -22 -66 -38 -30 -16 -127 -72 -215
-123 -88 -51 -169 -96 -180 -101 -11 -5 -33 -18 -50 -28 -16 -10 -46 -27 -65
-38 -271 -158 -352 -203 -360 -203 -6 0 -10 -4 -10 -8 0 -4 -15 -15 -32 -23
-18 -9 -60 -32 -93 -51 -33 -19 -109 -63 -170 -98 -60 -35 -126 -72 -145 -83
-19 -11 -55 -31 -80 -45 -25 -13 -49 -27 -55 -31 -5 -4 -35 -22 -66 -40 l-57
-31 2 469 1 470 385 219 c212 121 401 229 420 240 19 10 91 52 160 92 69 40
190 110 270 155 161 91 483 275 545 311 22 13 43 23 48 24 4 0 5 -168 3 -372z"/>
</g>
</svg>
